<svg width="232" height="244" viewBox="0 0 232 244" fill="none" xmlns="http://www.w3.org/2000/svg">
<g id="cornpos logo">
<g id="_2529561567552">
<path id="Path 1" fill-rule="evenodd" clip-rule="evenodd" d="M166.293 55.8699C187.025 55.8699 194.793 55.981 203.463 38.846C189.704 35.789 168.209 43.1279 166.293 55.8699Z" fill="white"/>
<path id="Path 2" fill-rule="evenodd" clip-rule="evenodd" d="M154.722 79.4161C175.453 79.4161 183.222 79.527 191.891 62.392C178.133 59.335 156.637 66.6741 154.722 79.4161Z" fill="white"/>
<path id="Path 3" fill-rule="evenodd" clip-rule="evenodd" d="M141.67 102.961C162.401 102.961 170.17 103.072 178.841 85.9357C165.081 82.8797 143.584 90.2188 141.67 102.961Z" fill="white"/>
<path id="Path 4" fill-rule="evenodd" clip-rule="evenodd" d="M129.122 126.507C149.854 126.507 157.622 126.618 166.292 109.483C152.532 106.426 131.036 113.765 129.122 126.507Z" fill="white"/>
<path id="Path 5" fill-rule="evenodd" clip-rule="evenodd" d="M116.985 147.232C137.716 147.232 145.485 147.342 154.154 130.208C140.396 127.15 118.9 134.489 116.985 147.232Z" fill="white"/>
<path id="Path 6" fill-rule="evenodd" clip-rule="evenodd" d="M158.643 48.873C163.843 28.803 165.899 21.308 151.483 8.62097C145.074 21.173 146.783 43.821 158.643 48.873Z" fill="white"/>
<path id="Path 7" fill-rule="evenodd" clip-rule="evenodd" d="M147.549 75.9969C152.749 55.9269 154.804 48.432 140.39 35.746C133.979 48.298 135.69 70.9459 147.549 75.9969Z" fill="white"/>
<path id="Path 8" fill-rule="evenodd" clip-rule="evenodd" d="M134.794 96.1229C139.994 76.0529 142.049 68.558 127.634 55.871C121.225 68.424 122.934 91.0709 134.794 96.1229Z" fill="white"/>
<path id="Path 9" fill-rule="evenodd" clip-rule="evenodd" d="M123.302 120.657C128.502 100.588 130.556 93.093 116.143 80.406C109.733 92.958 111.443 115.606 123.302 120.657Z" fill="white"/>
<path id="Path 10" fill-rule="evenodd" clip-rule="evenodd" d="M110.831 146.634C116.031 126.564 118.086 119.07 103.672 106.382C97.2622 118.936 98.9721 141.582 110.831 146.634Z" fill="white"/>
<path id="Path 11" fill-rule="evenodd" clip-rule="evenodd" d="M117.464 63.7529C121.764 47.1629 123.464 40.968 111.546 30.481C106.246 40.857 107.665 59.5809 117.464 63.7529Z" fill="white"/>
<path id="Path 12" fill-rule="evenodd" clip-rule="evenodd" d="M107.124 85.246C111.424 68.656 113.124 62.462 101.206 51.975C95.9062 62.35 97.3252 81.075 107.124 85.246Z" fill="white"/>
<path id="Path 13" fill-rule="evenodd" clip-rule="evenodd" d="M96.6052 102.027C100.661 86.3709 102.264 80.527 91.0202 70.627C86.0202 80.419 87.3582 98.0869 96.6052 102.027Z" fill="white"/>
<path id="Path 14" fill-rule="evenodd" clip-rule="evenodd" d="M86.5322 125.577C90.5882 109.921 92.1913 104.077 80.9473 94.1769C75.9473 103.968 77.2852 121.636 86.5322 125.577Z" fill="white"/>
<path id="Path 15" fill-rule="evenodd" clip-rule="evenodd" d="M75.0372 144.21C79.0932 128.553 80.6962 122.71 69.4532 112.81C64.4532 122.602 65.7902 140.27 75.0372 144.21Z" fill="white"/>
<path id="Path 16" fill-rule="evenodd" clip-rule="evenodd" d="M170.274 38.763C184.738 23.91 190.239 18.421 184.011 0.256958C172.221 7.98096 162.481 28.501 170.274 38.763Z" fill="white"/>
<path id="Path 17" fill-rule="evenodd" clip-rule="evenodd" d="M80.9883 66.6169C84.7693 52.0169 86.2643 46.5679 75.7803 37.3409C71.1183 46.4709 72.3653 62.9409 80.9883 66.6169Z" fill="white"/>
<path id="Path 18" fill-rule="evenodd" clip-rule="evenodd" d="M74.4612 86.9009C78.2422 72.3009 79.7373 66.8529 69.2543 57.6249C64.5923 66.7549 65.8382 83.2249 74.4612 86.9009Z" fill="white"/>
<path id="Path 19" fill-rule="evenodd" clip-rule="evenodd" d="M64.8232 106.383C68.6042 91.7831 70.0992 86.3349 59.6152 77.1069C54.9522 86.2369 56.1992 102.707 64.8232 106.383Z" fill="white"/>
<path id="Path 20" fill-rule="evenodd" clip-rule="evenodd" d="M55.8173 126.513C59.5983 111.913 61.0933 106.465 50.6103 97.2379C45.9493 106.367 47.1943 122.838 55.8173 126.513Z" fill="white"/>
<path id="Path 21" fill-rule="evenodd" clip-rule="evenodd" d="M47.304 146.633C51.085 132.033 52.58 126.585 42.097 117.357C37.435 126.486 38.682 142.957 47.304 146.633Z" fill="white"/>
<path id="Path 22" fill-rule="evenodd" clip-rule="evenodd" d="M28.3271 154.979C55.5501 153.1 76.9362 150.75 107.363 152.803L152.052 158.151L196.303 166.328C172.652 170.396 149.793 174.288 129.231 186.908L91.9442 167.619C87.4442 165.294 74.4581 162.285 61.2181 159.783C47.9781 157.281 33.8771 155.192 28.3271 154.979Z" fill="white"/>
<path id="Path 23" fill-rule="evenodd" clip-rule="evenodd" d="M28.3281 158.816C50.1441 162.078 66.5801 165.485 83.8281 172.435L116.986 190.17L99.9941 204.07C89.5781 193.67 82.1311 186.91 70.0071 178.824L28.3281 158.816Z" fill="white"/>
<g id="Group 1">
<path id="Path 24" d="M30.6752 238.063C30.5787 238.889 30.3653 239.697 30.0412 240.463C29.7686 241.087 29.3523 241.637 28.8262 242.069C28.2595 242.513 27.5997 242.824 26.8962 242.977C26.0076 243.173 25.0991 243.265 24.1892 243.251H6.87319C5.87225 243.278 4.87277 243.158 3.90619 242.897C3.15346 242.666 2.46883 242.254 1.91219 241.697C1.35498 241.163 0.94713 240.493 0.729185 239.753C0.474878 238.779 0.360067 237.774 0.388185 236.768V228.105C0.360434 227.1 0.475583 226.095 0.730185 225.122C0.947569 224.381 1.35546 223.709 1.91319 223.175C2.46935 222.617 3.15415 222.206 3.90719 221.975C4.87355 221.713 5.87312 221.593 6.87419 221.619H24.1882C25.0982 221.606 26.0068 221.698 26.8952 221.896C27.5981 222.047 28.2578 222.354 28.8252 222.796C29.3544 223.232 29.7711 223.789 30.0402 224.42C30.3598 225.181 30.5731 225.983 30.6742 226.802L27.2042 227.257C27.1788 226.893 27.108 226.533 26.9932 226.186C26.8974 225.931 26.7477 225.698 26.5542 225.506C26.4262 225.375 26.2788 225.266 26.1172 225.18C25.9232 225.084 25.7153 225.019 25.5012 224.987C25.2063 224.937 24.9088 224.904 24.6102 224.887C24.2632 224.866 23.8312 224.855 23.3102 224.855H7.75019C7.23119 224.855 6.79419 224.867 6.43719 224.887C6.13287 224.903 5.82972 224.936 5.52919 224.987C5.3198 225.017 5.11698 225.083 4.92919 225.18C4.77482 225.269 4.63321 225.379 4.50819 225.506C4.37666 225.638 4.26727 225.791 4.18419 225.958C4.09126 226.154 4.02565 226.362 3.98919 226.575C3.9393 226.871 3.90592 227.168 3.88919 227.467C3.86819 227.822 3.85719 228.251 3.85719 228.747V236.11C3.85719 236.61 3.86819 237.033 3.88919 237.389C3.90595 237.688 3.93934 237.986 3.98919 238.281C4.02506 238.495 4.09069 238.702 4.18419 238.898C4.26686 239.066 4.37629 239.219 4.50819 239.351C4.6336 239.478 4.77515 239.587 4.92919 239.677C5.11703 239.774 5.3198 239.84 5.52919 239.871C5.82983 239.921 6.13294 239.954 6.43719 239.971C6.79419 239.992 7.23219 240.005 7.75019 240.005H23.3142C23.8332 240.005 24.2652 239.993 24.6142 239.971C24.9128 239.954 25.2102 239.92 25.5052 239.871C25.7193 239.839 25.9272 239.773 26.1212 239.677C26.2825 239.591 26.4298 239.481 26.5582 239.351C26.7515 239.159 26.9012 238.926 26.9972 238.671C27.1123 238.324 27.1832 237.964 27.2082 237.599L30.6752 238.063ZM61.1552 236.763C61.1828 237.769 61.0676 238.773 60.8132 239.746C60.5952 240.486 60.1874 241.156 59.6302 241.69C59.0737 242.247 58.389 242.659 57.6362 242.89C56.6696 243.152 55.6701 243.271 54.6692 243.244H42.9962C41.9956 243.271 40.9964 243.152 40.0302 242.89C39.277 242.659 38.592 242.247 38.0352 241.69C37.478 241.156 37.0702 240.486 36.8522 239.746C36.5988 238.773 36.484 237.769 36.5112 236.763V232.45C36.4837 231.445 36.5985 230.44 36.8522 229.467C37.0691 228.726 37.4771 228.055 38.0352 227.522C38.5906 226.963 39.2761 226.551 40.0302 226.322C40.996 226.058 41.9953 225.937 42.9962 225.963H54.6702C55.6714 225.937 56.671 226.058 57.6372 226.322C58.3909 226.551 59.0761 226.963 59.6312 227.522C60.1893 228.055 60.5973 228.726 60.8142 229.467C61.0689 230.44 61.1841 231.445 61.1562 232.45L61.1552 236.763ZM39.9812 236.115C39.9812 236.615 39.9922 237.038 40.0132 237.394C40.0299 237.693 40.0633 237.991 40.1132 238.286C40.1491 238.5 40.2147 238.707 40.3082 238.903C40.3909 239.071 40.5003 239.224 40.6322 239.356C40.7579 239.483 40.9001 239.593 41.0552 239.682C41.2429 239.78 41.4457 239.846 41.6552 239.876C41.9559 239.925 42.259 239.959 42.5632 239.976C42.9205 239.999 43.3585 240.01 43.8772 240.009H53.7992C54.3182 240.009 54.7562 239.997 55.1122 239.976C55.4164 239.959 55.7195 239.925 56.0202 239.876C56.2297 239.846 56.4326 239.78 56.6202 239.682C56.7745 239.593 56.9161 239.483 57.0412 239.356C57.173 239.224 57.2824 239.07 57.3652 238.903C57.4585 238.707 57.5241 238.5 57.5602 238.286C57.6109 237.991 57.6443 237.693 57.6602 237.394C57.6812 237.038 57.6922 236.611 57.6922 236.115V233.105C57.6922 232.605 57.6812 232.182 57.6602 231.826C57.6438 231.526 57.6104 231.227 57.5602 230.931C57.5241 230.718 57.4585 230.51 57.3652 230.315C57.2822 230.148 57.1728 229.995 57.0412 229.863C56.9157 229.737 56.7742 229.628 56.6202 229.538C56.433 229.439 56.23 229.373 56.0202 229.343C55.7197 229.292 55.4165 229.259 55.1122 229.243C54.7562 229.221 54.3172 229.21 53.7992 229.21H43.8732C43.3542 229.21 42.9172 229.221 42.5592 229.243C42.2549 229.259 41.9517 229.292 41.6512 229.343C41.4413 229.372 41.2383 229.439 41.0512 229.538C40.8966 229.628 40.7544 229.737 40.6282 229.863C40.4967 229.995 40.3873 230.148 40.3042 230.315C40.2111 230.51 40.1454 230.718 40.1092 230.931C40.0594 231.228 40.0261 231.526 40.0092 231.826C39.9882 232.182 39.9772 232.61 39.9772 233.105L39.9812 236.115ZM70.4612 243.247H66.9882V225.966H79.0532C80.6876 225.837 82.3185 226.254 83.6912 227.15C84.8082 228.189 85.4717 229.626 85.5382 231.15L82.1012 231.604C82.0775 231.238 82.0011 230.877 81.8742 230.533C81.7722 230.285 81.63 230.056 81.4532 229.854C81.3087 229.729 81.1507 229.619 80.9822 229.529C80.7946 229.43 80.5918 229.362 80.3822 229.329C80.093 229.277 79.8007 229.244 79.5072 229.229C79.1622 229.206 78.7282 229.194 78.2072 229.194H70.4602V243.235L70.4612 243.247ZM88.5542 225.966H106.288C107.289 225.939 108.288 226.059 109.254 226.323C110.01 226.55 110.698 226.963 111.254 227.523C111.812 228.057 112.22 228.727 112.437 229.468C112.691 230.441 112.806 231.446 112.779 232.451V243.251H109.309V233.105C109.309 232.605 109.298 232.182 109.277 231.826C109.26 231.526 109.227 231.228 109.177 230.931C109.141 230.718 109.076 230.511 108.982 230.317C108.899 230.149 108.79 229.996 108.658 229.864C108.532 229.737 108.39 229.628 108.235 229.538C108.048 229.439 107.845 229.372 107.635 229.343C107.335 229.293 107.031 229.262 106.727 229.248C106.37 229.224 105.932 229.212 105.414 229.213H92.0232V243.254H88.5532V225.973L88.5542 225.966Z" fill="white"/>
<path id="Path 25" d="M153.825 221.624C154.827 221.597 155.827 221.716 156.793 221.979C157.546 222.209 158.231 222.621 158.787 223.179C159.346 223.712 159.754 224.383 159.97 225.124C160.224 226.097 160.339 227.101 160.311 228.106V230.28C160.339 231.285 160.224 232.289 159.97 233.262C159.753 234.003 159.345 234.674 158.787 235.208C158.231 235.766 157.546 236.178 156.793 236.408C155.826 236.67 154.826 236.789 153.825 236.762H133.525V243.249H130.055V221.619H153.823L153.825 221.624ZM152.951 233.524C153.47 233.524 153.901 233.511 154.251 233.49C154.545 233.474 154.837 233.44 155.127 233.39C155.336 233.355 155.539 233.287 155.727 233.19C155.895 233.1 156.052 232.992 156.196 232.867C156.426 232.66 156.598 232.397 156.696 232.104C156.806 231.718 156.856 231.318 156.843 230.918V227.449C156.855 227.05 156.806 226.65 156.696 226.266C156.599 225.973 156.426 225.71 156.196 225.504C156.053 225.378 155.895 225.27 155.727 225.18C155.538 225.083 155.336 225.016 155.127 224.98C154.837 224.931 154.545 224.897 154.251 224.88C153.905 224.858 153.472 224.848 152.951 224.848H133.528V233.506H152.952L152.951 233.524ZM195.104 236.764C195.132 237.77 195.017 238.775 194.763 239.749C194.545 240.49 194.137 241.16 193.579 241.694C193.024 242.253 192.339 242.665 191.585 242.894C190.619 243.159 189.619 243.28 188.618 243.253H171.335C170.334 243.28 169.334 243.159 168.368 242.894C167.615 242.665 166.93 242.252 166.375 241.694C165.818 241.16 165.41 240.489 165.192 239.749C164.938 238.775 164.823 237.77 164.851 236.764V228.103C164.823 227.098 164.938 226.094 165.192 225.121C165.41 224.38 165.818 223.71 166.375 223.176C166.931 222.619 167.616 222.207 168.368 221.976C169.335 221.714 170.334 221.594 171.335 221.621H188.618C189.619 221.594 190.619 221.713 191.585 221.976C192.338 222.206 193.023 222.619 193.579 223.176C194.137 223.71 194.546 224.38 194.763 225.121C195.017 226.094 195.132 227.098 195.104 228.103V236.764ZM168.321 236.118C168.321 236.618 168.332 237.041 168.352 237.397C168.369 237.696 168.402 237.994 168.452 238.289C168.487 238.502 168.553 238.71 168.646 238.905C168.729 239.072 168.839 239.225 168.971 239.358C169.097 239.484 169.238 239.593 169.392 239.681C169.578 239.783 169.782 239.851 169.992 239.881C170.293 239.931 170.596 239.965 170.9 239.981C171.258 240.002 171.694 240.013 172.214 240.013H187.746C188.265 240.013 188.702 240.001 189.059 239.981C189.363 239.966 189.666 239.932 189.966 239.881C190.177 239.851 190.38 239.784 190.566 239.681C190.721 239.593 190.862 239.484 190.987 239.358C191.119 239.225 191.228 239.072 191.311 238.905C191.406 238.709 191.473 238.502 191.511 238.289C191.562 237.994 191.595 237.696 191.611 237.397C191.632 237.041 191.644 236.614 191.644 236.118V228.756C191.644 228.256 191.632 227.83 191.611 227.475C191.595 227.176 191.562 226.877 191.511 226.582C191.474 226.368 191.406 226.161 191.311 225.966C191.228 225.798 191.118 225.646 190.987 225.513C190.862 225.386 190.721 225.277 190.566 225.189C190.379 225.089 190.176 225.022 189.966 224.989C189.666 224.94 189.363 224.906 189.059 224.889C188.702 224.866 188.265 224.855 187.747 224.856H172.215C171.696 224.856 171.259 224.867 170.901 224.889C170.597 224.906 170.294 224.94 169.993 224.989C169.783 225.022 169.58 225.089 169.393 225.189C169.239 225.278 169.097 225.387 168.972 225.513C168.841 225.646 168.731 225.799 168.647 225.966C168.555 226.161 168.49 226.369 168.453 226.582C168.403 226.877 168.37 227.176 168.353 227.475C168.332 227.83 168.322 228.257 168.322 228.756L168.321 236.118ZM227.95 227.265C227.926 226.898 227.85 226.537 227.723 226.192C227.621 225.943 227.478 225.714 227.301 225.512C227.157 225.387 227 225.278 226.832 225.188C226.643 225.092 226.441 225.024 226.232 224.988C225.943 224.938 225.65 224.905 225.357 224.888C225.011 224.865 224.578 224.854 224.057 224.855H208.524C207.803 224.835 207.082 224.878 206.369 224.985C205.968 225.062 205.594 225.241 205.283 225.505C205.053 225.711 204.88 225.974 204.783 226.267C204.673 226.651 204.623 227.05 204.636 227.45V228.229C204.624 228.629 204.673 229.029 204.783 229.414C204.881 229.707 205.053 229.97 205.283 230.176C205.594 230.44 205.968 230.618 206.369 230.695C207.082 230.801 207.803 230.845 208.524 230.825H224.899C225.911 230.797 226.922 230.917 227.899 231.182C228.646 231.405 229.321 231.819 229.86 232.382C230.374 232.904 230.763 233.536 230.995 234.231C231.263 235.013 231.395 235.836 231.385 236.663V237.442C231.391 238.252 231.259 239.058 230.995 239.824C230.764 240.524 230.376 241.162 229.86 241.689C229.321 242.252 228.646 242.666 227.899 242.889C226.922 243.156 225.911 243.277 224.899 243.248H207.617C206.702 243.264 205.787 243.17 204.894 242.969C204.196 242.817 203.542 242.509 202.979 242.069C202.453 241.636 202.036 241.086 201.763 240.462C201.441 239.696 201.228 238.888 201.131 238.062L204.6 237.606C204.626 237.975 204.696 238.34 204.811 238.693C204.897 238.948 205.048 239.177 205.249 239.357C205.378 239.486 205.526 239.595 205.687 239.68C205.88 239.781 206.088 239.848 206.303 239.88C206.598 239.93 206.895 239.964 207.193 239.98C207.54 240.001 207.972 240.012 208.493 240.012H223.993C224.511 240.012 224.945 240 225.293 239.98C225.586 239.965 225.878 239.931 226.167 239.88C226.377 239.847 226.58 239.78 226.767 239.68C226.936 239.59 227.093 239.481 227.238 239.357C227.468 239.151 227.641 238.889 227.738 238.596C227.846 238.223 227.896 237.834 227.884 237.446V236.634C227.896 236.245 227.847 235.857 227.738 235.484C227.64 235.19 227.468 234.928 227.238 234.721C227.093 234.596 226.935 234.487 226.767 234.397C226.578 234.302 226.376 234.236 226.167 234.203C225.878 234.153 225.586 234.12 225.293 234.103C224.948 234.082 224.514 234.07 223.993 234.07H207.618C206.606 234.1 205.595 233.979 204.618 233.712C203.872 233.488 203.196 233.075 202.657 232.512C202.142 231.985 201.753 231.348 201.522 230.648C201.258 229.87 201.126 229.053 201.133 228.231V227.452C201.126 226.631 201.258 225.815 201.522 225.038C201.753 224.338 202.142 223.7 202.657 223.174C203.198 222.613 203.873 222.2 204.618 221.974C205.596 221.71 206.606 221.591 207.618 221.619H224.9C226.534 221.49 228.165 221.906 229.538 222.801C230.655 223.84 231.319 225.277 231.386 226.801L227.95 227.265Z" fill="white"/>
</g>
</g>
</g>
</svg>
